# Blender v2.83.5 OBJ File: 'Cutlery Bones.blend'
# www.blender.org
mtllib Knife.mtl
o Cube.002_Cube.003
v 0.629909 2.064277 0.274538
v 0.655577 2.315343 -0.198633
v -0.000192 1.965973 -0.202198
v -0.005508 1.458629 0.286964
v 0.666164 9.100193 0.438464
v 0.106066 9.678387 0.438464
v 0.597856 9.389290 0.438464
v 0.392846 9.600924 0.438464
v 0.106066 9.678387 -0.362529
v 0.392846 9.600924 -0.362529
v 0.597856 9.389290 -0.362529
v -0.651606 2.051395 0.276133
v -0.659150 2.314165 -0.198732
v 0.000000 9.678387 -0.362529
v 0.000000 9.678387 0.438464
v -0.723495 9.100193 0.438464
v -0.163397 9.678387 0.438464
v -0.655186 9.389290 0.438464
v -0.450176 9.600924 0.438464
v -0.163397 9.678387 -0.362529
v -0.723495 9.100193 -0.362529
v -0.450176 9.600924 -0.362529
v -0.655186 9.389290 -0.362529
v 0.664830 9.105838 -0.362529
v 0.000000 9.106512 -0.362529
v 0.000000 9.099006 0.438464
v 0.000000 -5.540719 0.232427
v 0.000000 -5.540719 -0.154795
v 0.659995 2.161212 0.038093
v 0.000000 9.678387 0.037967
v 0.106066 9.678387 0.037967
v 0.392846 9.600924 0.037967
v 0.597856 9.389290 0.037967
v -0.681796 2.405571 0.038129
v -0.163397 9.678387 0.037967
v -0.450176 9.600924 0.037967
v -0.655186 9.389290 0.037967
v -0.723495 9.100193 0.037967
v 0.665497 9.103016 0.037967
v 0.000000 -5.540719 0.037967
v -0.745347 -4.645048 0.219612
v -0.602867 -5.078966 0.228289
v -0.365748 -5.369583 0.232427
v -0.745347 -4.645048 -0.138677
v -0.365748 -5.369583 -0.154795
v -0.602867 -5.078966 -0.145683
v -0.745347 -4.645048 0.037967
v -0.404125 -5.390066 0.037967
v -0.602867 -5.078966 0.037967
v 0.454333 -5.522860 0.232427
v 0.660395 -5.214000 0.232427
v 0.600041 -5.419892 0.232427
v 0.660395 -5.214000 -0.154795
v 0.454333 -5.522860 -0.154795
v 0.600041 -5.419892 -0.154795
v 0.660395 -5.214000 0.037967
v 0.454333 -5.522860 0.037967
v 0.600041 -5.419892 0.037967
v -0.833138 2.286006 0.208675
v -1.069857 1.999957 0.219612
v -0.971408 2.186729 0.174449
v -1.010229 2.121110 0.219369
v -1.093298 1.999957 -0.158775
v -0.858023 2.287452 -0.106571
v -1.045903 2.131663 -0.143576
v -1.008198 2.199545 -0.082738
v -1.093298 1.999957 0.037967
v -0.961969 2.287452 0.037967
v -1.087538 2.131663 0.037967
v -1.059951 2.199545 0.037967
v -0.017367 4.372322 0.356933
v -0.007973 4.110464 -0.278379
v 0.580598 3.696904 0.322239
v -0.590084 4.004444 -0.234208
v -0.620989 3.650657 0.327183
v 0.566592 3.957918 -0.236616
v -0.681149 3.807265 0.036813
v 0.649351 3.817125 0.035404
vt 0.739399 0.474745
vt 0.743740 0.752420
vt 0.709303 0.752337
vt 0.708493 0.509433
vt 0.869685 0.297199
vt 0.868750 0.025554
vt 0.889456 0.025618
vt 0.884563 0.303347
vt 0.619341 0.286034
vt 0.619690 0.029391
vt 0.654050 0.029387
vt 0.648984 0.293802
vt 0.461501 0.832422
vt 0.482193 0.832422
vt 0.482026 0.847000
vt 0.461333 0.847000
vt 0.868750 0.000081
vt 0.889456 0.000000
vt 0.889423 0.010790
vt 0.868717 0.010871
vt 0.461509 0.826975
vt 0.482201 0.826975
vt 0.677288 0.472328
vt 0.671901 0.752374
vt 0.870152 0.382290
vt 0.882407 0.387236
vt 0.881679 0.761256
vt 0.871626 0.761295
vt 0.958439 0.635381
vt 0.973392 0.627008
vt 0.979981 0.906183
vt 0.959276 0.906263
vt 0.589198 0.291478
vt 0.582297 0.029759
vt 0.461520 0.818584
vt 0.461394 0.803707
vt 0.482086 0.803707
vt 0.482213 0.818584
vt 0.461006 0.792768
vt 0.481699 0.792768
vt 0.959276 0.920698
vt 0.979981 0.920618
vt 0.596405 0.004013
vt 0.611224 0.000016
vt 0.650578 0.014826
vt 0.740200 0.767275
vt 0.675423 0.767233
vt 0.639975 0.003963
vt 0.625151 0.000000
vt 0.619669 0.000006
vt 0.585817 0.014900
vt 0.686014 0.778116
vt 0.700837 0.782107
vt 0.709284 0.782112
vt 0.714767 0.782116
vt 0.729595 0.778144
vt 0.741962 0.390847
vt 0.709144 0.359700
vt 0.709611 0.000000
vt 0.733098 0.000933
vt 0.740627 0.006229
vt 0.743740 0.016812
vt 0.981063 0.585247
vt 0.990195 0.585231
vt 0.990623 0.926814
vt 0.980452 0.926832
vt 0.857884 0.374419
vt 0.861660 0.761334
vt 0.653044 0.801878
vt 0.653045 0.825221
vt 0.643078 0.825221
vt 0.643078 0.801878
vt 0.619715 0.396159
vt 0.653590 0.378165
vt 0.654050 0.765012
vt 0.650938 0.775595
vt 0.643411 0.780895
vt 0.619930 0.781839
vt 0.440828 0.818584
vt 0.440816 0.826975
vt 0.938571 0.920778
vt 0.938571 0.906343
vt 0.440701 0.803707
vt 0.440314 0.792768
vt 0.944401 0.645054
vt 0.440809 0.832422
vt 0.848012 0.010952
vt 0.848044 0.025491
vt 0.848045 0.000162
vt 0.440641 0.847000
vt 0.855623 0.290053
vt 0.980602 0.562331
vt 0.990097 0.562315
vt 0.979981 0.546262
vt 0.989969 0.545392
vt 0.999586 0.585214
vt 0.999936 0.562297
vt 1.000000 0.546226
vt 0.565582 0.387656
vt 0.575236 0.379607
vt 0.585641 0.378303
vt 0.563159 0.394439
vt 0.405853 0.812565
vt 0.393545 0.812577
vt 0.397030 0.804300
vt 0.405853 0.797704
vt 0.751276 0.797126
vt 0.763471 0.794624
vt 0.760057 0.805390
vt 0.753303 0.811605
vt 0.653045 0.833130
vt 0.643079 0.833130
vt 0.871689 0.771901
vt 0.861723 0.771940
vt 0.633024 0.825221
vt 0.633025 0.833130
vt 0.881743 0.771862
vt 0.633024 0.801878
vt 0.759970 0.813344
vt 0.754108 0.816748
vt 0.990610 0.936850
vt 0.984339 0.936597
vt 0.981214 0.933324
vt 0.990624 0.933520
vt 0.743740 0.806123
vt 0.746579 0.813122
vt 0.997613 0.935731
vt 0.999956 0.932569
vt 1.000000 0.926678
vt 0.763471 0.814995
vt 0.657129 0.393718
vt 0.654050 0.387489
vt 0.675716 0.390143
vt 0.666269 0.402199
vt 0.744660 0.815496
vt 0.690698 0.008783
vt 0.678428 0.023710
vt 0.671041 0.046006
vt 0.601021 0.773067
vt 0.588743 0.758140
vt 0.581354 0.735846
vt 0.946036 0.558963
vt 0.958308 0.563705
vt 0.970544 0.545392
vt 0.633025 0.783894
vt 0.643079 0.781839
vt 0.653045 0.783893
vn 0.0169 -0.0197 0.9997
vn 0.9953 -0.0105 0.0967
vn 0.0311 -0.0210 -0.9993
vn 0.2608 0.9654 0.0000
vn 0.7183 0.6958 0.0000
vn 0.9732 0.2299 0.0000
vn 0.0000 1.0000 0.0000
vn -0.0121 -0.0190 0.9997
vn 0.9975 0.0019 0.0701
vn -0.9964 -0.0143 0.0835
vn -0.0320 -0.0214 -0.9993
vn -0.2608 0.9654 0.0000
vn -0.7183 0.6958 0.0000
vn -0.9732 0.2300 0.0000
vn 0.0000 0.0000 -1.0000
vn 0.0000 0.0000 1.0000
vn 0.0142 -0.0066 0.9999
vn -0.9986 -0.0523 0.0000
vn 0.9999 0.0003 -0.0102
vn 0.0393 -0.9992 0.0000
vn 0.0057 -0.0060 -1.0000
vn -0.9900 -0.0185 -0.1397
vn 0.9732 0.2300 0.0000
vn 0.9920 -0.0124 -0.1257
vn -0.9501 -0.3120 0.0000
vn -0.8054 -0.5817 -0.1138
vn -0.8052 -0.5825 0.1113
vn -0.3172 0.4145 -0.8530
vn -0.1019 -0.7698 -0.6301
vn -0.3301 0.8872 -0.3222
vn 0.5771 -0.8167 0.0000
vn 0.9596 -0.2813 0.0000
vn -0.5663 0.7542 -0.3324
vn -0.8222 0.5093 -0.2541
vn -0.9734 0.2026 -0.1071
vn -0.5935 0.6666 0.4509
vn -0.7445 0.5138 0.4262
vn -0.9332 0.2416 0.2660
vn -0.9967 -0.0504 0.0643
vn -0.4969 0.7158 -0.4907
vn -0.1275 0.1431 0.9815
vn -0.5903 0.6637 0.4594
vn -0.0161 -0.0071 0.9998
vn -0.0259 -0.0069 0.9996
vn -0.1200 -0.0067 0.9928
vn -0.0065 -0.0061 -1.0000
vn -0.0476 -0.0075 -0.9988
vn -0.0827 -0.0076 -0.9965
vn 0.9878 0.0279 -0.1531
vn -0.9765 0.0195 -0.2146
vn -0.0439 -0.0284 -0.9986
vn -0.9845 0.0073 0.1754
vn -0.0297 -0.0267 0.9992
vn 0.0414 -0.0290 -0.9987
vn 0.9813 0.0153 0.1917
vn 0.0367 -0.0254 0.9990
vn -0.3842 -0.9192 0.0863
vn -0.3842 -0.9191 -0.0871
usemtl None
s off
f 73/1/1 5/2/1 26/3/1 71/4/1
f 78/5/2 39/6/2 5/7/2 73/8/2
f 72/9/3 25/10/3 24/11/3 76/12/3
f 31/13/4 6/14/4 8/15/4 32/16/4
f 32/17/5 8/18/5 7/19/5 33/20/5
f 33/20/6 7/19/6 5/7/6 39/6/6
f 31/13/7 30/21/7 15/22/7 6/14/7
f 75/23/8 71/4/8 26/3/8 16/24/8
f 29/25/9 1/26/9 51/27/9 56/28/9
f 77/29/10 75/30/10 16/31/10 38/32/10
f 72/9/11 74/33/11 21/34/11 25/10/11
f 35/35/12 36/36/12 19/37/12 17/38/12
f 36/36/13 37/39/13 18/40/13 19/37/13
f 37/41/14 38/32/14 16/31/14 18/42/14
f 35/35/7 17/38/7 15/22/7 30/21/7
f 25/10/15 22/43/15 20/44/15
f 24/11/15 25/10/15 11/45/15
f 26/3/16 5/2/16 7/46/16
f 16/24/16 26/3/16 18/47/16
f 11/45/15 25/10/15 10/48/15
f 10/48/15 25/10/15 9/49/15
f 20/44/15 14/50/15 25/10/15
f 9/49/15 25/10/15 14/50/15
f 22/43/15 25/10/15 23/51/15
f 23/51/15 25/10/15 21/34/15
f 18/47/16 26/3/16 19/52/16
f 19/52/16 26/3/16 17/53/16
f 17/53/16 26/3/16 15/54/16
f 6/55/16 15/54/16 26/3/16
f 7/46/16 8/56/16 26/3/16
f 8/56/16 6/55/16 26/3/16
f 1/57/17 4/58/17 27/59/17 50/60/17 52/61/17 51/62/17
f 44/63/18 47/64/18 67/65/18 63/66/18
f 2/67/19 29/25/19 56/28/19 53/68/19
f 28/69/20 54/70/20 57/71/20 40/72/20
f 3/73/21 2/74/21 53/75/21 55/76/21 54/77/21 28/78/21
f 20/79/7 35/35/7 30/21/7 14/80/7
f 23/81/14 21/82/14 38/32/14 37/41/14
f 22/83/13 23/84/13 37/39/13 36/36/13
f 20/79/12 22/83/12 36/36/12 35/35/12
f 74/85/22 77/29/22 38/32/22 21/82/22
f 9/86/7 14/80/7 30/21/7 31/13/7
f 11/87/23 33/20/23 39/6/23 24/88/23
f 10/89/5 32/17/5 33/20/5 11/87/5
f 9/86/4 31/13/4 32/16/4 10/90/4
f 76/91/24 24/88/24 39/6/24 78/5/24
f 47/64/25 44/63/25 46/92/25 49/93/25
f 49/93/26 46/92/26 45/94/26 48/95/26
f 41/96/25 47/64/25 49/93/25 42/97/25
f 42/97/27 49/93/27 48/95/27 43/98/27
f 65/99/28 64/100/28 13/101/28 63/102/28
f 34/103/29 12/104/29 59/105/29 68/106/29
f 34/107/30 13/108/30 64/109/30 68/110/30
f 57/71/31 54/70/31 55/111/31 58/112/31
f 58/113/32 55/114/32 53/68/32 56/28/32
f 50/115/31 57/71/31 58/112/31 52/116/31
f 52/117/32 58/113/32 56/28/32 51/27/32
f 40/72/20 57/71/20 50/115/20 27/118/20
f 68/110/33 64/109/33 66/119/33 70/120/33
f 70/121/34 66/122/34 65/123/34 69/124/34
f 69/124/35 65/123/35 63/66/35 67/65/35
f 59/125/36 68/110/36 70/120/36 61/126/36
f 61/127/37 70/121/37 69/124/37 62/128/37
f 62/128/38 69/124/38 67/65/38 60/129/38
f 47/64/39 41/96/39 60/129/39 67/65/39
f 64/109/40 65/130/40 66/119/40
f 62/131/41 60/132/41 12/133/41 59/134/41
f 61/126/42 62/135/42 59/125/42
f 4/58/43 12/133/43 43/136/43 27/59/43
f 42/137/44 43/136/44 12/133/44
f 42/137/45 12/133/45 60/132/45 41/138/45
f 3/73/46 28/78/46 45/139/46 13/101/46
f 45/139/47 46/140/47 13/101/47
f 44/141/48 63/102/48 13/101/48 46/140/48
f 2/67/49 76/91/49 78/5/49 29/25/49
f 13/142/50 34/143/50 77/29/50 74/85/50
f 3/73/51 13/101/51 74/33/51 72/9/51
f 34/143/52 12/144/52 75/30/52 77/29/52
f 12/133/53 4/58/53 71/4/53 75/23/53
f 3/73/54 72/9/54 76/12/54 2/74/54
f 29/25/55 78/5/55 73/8/55 1/26/55
f 1/57/56 73/1/56 71/4/56 4/58/56
f 27/118/57 43/145/57 48/146/57 40/72/57
f 40/72/58 48/146/58 45/147/58 28/69/58
