# Blender v2.83.5 OBJ File: 'Trim.blend'
# www.blender.org
mtllib Trim.mtl
o Cube_Cube.003
v 0.071518 0.135780 1.778044
v 0.051780 0.135493 1.778044
v 0.036429 0.122132 1.778044
v 0.026123 0.104052 1.778044
v 0.008704 0.086349 1.778044
v -0.001341 0.074496 1.778044
v -0.006929 0.059020 1.778044
v -0.002872 0.038940 1.778044
v 0.004079 0.034092 1.778044
v 0.002110 -0.052544 1.778044
v -0.017388 -0.073910 1.778044
v -0.022512 -0.101737 1.778044
v -0.038360 -0.102341 1.778044
v -0.039464 -0.156087 1.778044
v 0.071518 0.135780 -1.778044
v 0.051780 0.135493 -1.778044
v 0.036429 0.122132 -1.778044
v 0.026123 0.104052 -1.778044
v 0.008704 0.086349 -1.778044
v -0.001341 0.074496 -1.778044
v -0.006929 0.059020 -1.778044
v -0.002872 0.038940 -1.778044
v 0.004079 0.034092 -1.778044
v 0.002110 -0.052544 -1.778044
v -0.017388 -0.073910 -1.778044
v -0.022512 -0.101737 -1.778044
v -0.038360 -0.102341 -1.778044
v -0.039464 -0.156087 -1.778044
vt 0.060450 0.000000
vt 0.001481 0.000000
vt 0.001481 1.000000
vt 0.060451 1.000000
vt 0.107344 0.000000
vt 0.107345 1.000000
vt 0.166239 0.000000
vt 0.108274 0.000000
vt 0.108278 1.000000
vt 0.166242 1.000000
vt 0.226227 0.000000
vt 0.226231 1.000000
vt 0.265678 0.000000
vt 0.265682 1.000000
vt 0.313868 0.000000
vt 0.313871 1.000000
vt 0.371411 0.000000
vt 0.371415 1.000000
vt 0.382672 0.000000
vt 0.382676 1.000000
vt 0.639528 0.000000
vt 0.639531 1.000000
vt 0.711255 0.000000
vt 0.711258 1.000000
vt 0.795736 0.000000
vt 0.795739 1.000000
vt 0.842509 0.000000
vt 0.795133 0.000000
vt 0.795134 1.000000
vt 0.842510 1.000000
vt 1.001786 0.000000
vt 1.001789 1.000000
vn -0.0145 0.9999 0.0000
vn -0.6565 0.7543 0.0000
vn -0.8688 0.4952 0.0000
vn -0.7128 0.7014 0.0000
vn -0.7629 0.6465 0.0000
vn -0.9405 0.3397 0.0000
vn -0.9802 -0.1980 0.0000
vn -0.5721 -0.8202 0.0000
vn -0.9997 0.0227 0.0000
vn -0.7387 0.6741 0.0000
vn -0.9835 0.1811 0.0000
vn -0.0381 0.9993 0.0000
vn -0.9998 0.0205 0.0000
usemtl Trim
s off
f 2/1/1 1/2/1 15/3/1 16/4/1
f 3/5/2 2/1/2 16/4/2 17/6/2
f 4/7/3 3/8/3 17/9/3 18/10/3
f 5/11/4 4/7/4 18/10/4 19/12/4
f 6/13/5 5/11/5 19/12/5 20/14/5
f 7/15/6 6/13/6 20/14/6 21/16/6
f 8/17/7 7/15/7 21/16/7 22/18/7
f 9/19/8 8/17/8 22/18/8 23/20/8
f 10/21/9 9/19/9 23/20/9 24/22/9
f 11/23/10 10/21/10 24/22/10 25/24/10
f 12/25/11 11/23/11 25/24/11 26/26/11
f 13/27/12 12/28/12 26/29/12 27/30/12
f 14/31/13 13/27/13 27/30/13 28/32/13
o Cube.001
v 0.201165 0.433184 -7.750337
v 0.141352 0.433610 -7.749467
v 0.094835 0.457130 -7.708978
v 0.063602 0.488997 -7.654191
v 0.010817 0.520171 -7.600544
v -0.019620 0.541050 -7.564625
v -0.036556 0.568340 -7.517730
v -0.024261 0.603797 -7.456881
v -0.003197 0.612382 -7.442189
v -0.009164 0.765280 -7.179657
v -0.068249 0.802910 -7.114910
v -0.083777 0.852002 -7.030586
v -0.131801 0.853003 -7.028756
v -0.135147 0.947856 -6.865891
l 29 30
l 30 31
l 31 32
l 32 33
l 33 34
l 34 35
l 35 36
l 36 37
l 37 38
l 38 39
l 39 40
l 40 41
l 41 42
